<svg width="580" height="400" xmlns="http://www.w3.org/2000/svg">
 <!-- Created with Method Draw - http://github.com/duopixel/Method-Draw/ -->

 <g>
  <title>background</title>
  <g id="canvasGrid" display="none">
   <rect id="svg_1" width="100%" height="100%" x="0" y="0" stroke-width="0" fill="url(#gridpattern)"/>
  </g>
 </g>
 <g>
  <title>Layer 1</title>
  <rect fill="#A0D58A" stroke-width="1.5" x="393.5" y="494.5" width="56" height="29" id="svg_3" stroke="null"/>
  <ellipse fill="#CC7C65" stroke-width="1.5" cx="56.5" cy="314.5" id="svg_5" rx="113"/>
  <ellipse fill="#CC7C65" stroke-width="1.5" cx="739.5" cy="420.5" id="svg_7"/>
  <g id="svg_19" stroke="null">
   <ellipse fill="#CC7C65" stroke-width="1.5" cx="281.594184" cy="102.805937" id="svg_6" rx="48.695774" ry="99.305951" stroke="null"/>
   <ellipse fill="#CC7C65" stroke-width="1.5" cx="392.433807" cy="212.198104" id="svg_9" rx="21" ry="46" transform="matrix(-0.8670264790658887,2.0022396446486335,-2.1506542279273653,-0.8071938142371027,1161.6879048178612,-364.8554904159382) " stroke="null"/>
   <ellipse fill="#CC7C65" stroke-width="1.5" cx="208.768098" cy="122.157681" id="svg_10" rx="21" ry="46" transform="matrix(-1.0264980697953585,-1.9357785521828177,2.079266754461689,-0.9556604236099366,151.46082065616162,774.7937556284501) " stroke="null"/>
   <ellipse fill="#CC7C65" stroke-width="1.5" cx="337.386897" cy="223.26612" id="svg_11" rx="21" ry="46" transform="matrix(1.54076692544722,1.6133527534892618,-1.7329413737778796,1.434440079318041,246.0582564369312,-709.9682129161536) " stroke="null"/>
   <ellipse fill="#CC7C65" stroke-width="1.5" cx="168.665067" cy="132.198469" id="svg_12" rx="21" ry="46" transform="matrix(0.9629991192869188,-1.9638572367427125,2.109426751455443,0.8965434747063896,-245.490429039577,375.96547596073515) " stroke="null"/>
   <ellipse fill="#CC7C65" stroke-width="1.5" cx="324.677706" cy="148.900802" id="svg_13" rx="21" ry="46" transform="matrix(-2.3162384944446694,-0.10235719706823426,0.1099443511779147,-2.156397099922383,1012.6166895125842,651.4225458069725) " stroke="null"/>
   <ellipse fill="#FFFA8D" stroke-width="1.5" cx="281.594184" cy="209.667776" id="svg_4" rx="85.797316" ry="83.114763" stroke="#A0D58A"/>
   <path fill="#666666" stroke-width="1.5" stroke-opacity="null" d="m218.515777,185.297197l11.806244,-13.60853l12.54159,14.456012l12.54159,-14.456012l11.806355,13.60853l-12.541593,14.456131l12.541593,14.456131l-11.806355,13.608658l-12.54159,-14.456135l-12.54159,14.456135l-11.806244,-13.608658l12.541487,-14.456131l-12.541487,-14.456131z" id="svg_14" stroke="null"/>
   <path fill="#666666" stroke-width="1.5" stroke-opacity="null" d="m301.994235,185.297189l11.806244,-13.60852l12.541597,14.45601l12.541597,-14.45601l11.80636,13.60852l-12.541597,14.45614l12.541597,14.45614l-11.80636,13.60865l-12.541597,-14.45614l-12.541597,14.45614l-11.806244,-13.60865l12.541504,-14.45614l-12.541504,-14.45614z" id="svg_15" stroke="null"/>
   <ellipse fill="#9ACEE6" stroke-width="1.5" stroke-opacity="null" cx="286.231877" cy="250.685451" id="svg_17" rx="11.594232" ry="24.826488" stroke="null"/>
   <path fill="#529D94" stroke-width="1.5" stroke-opacity="null" d="m423.741321,253.685262c-14.114519,-3.160803 -22.291459,-16.155551 -21.326941,-27.943957c-0.361333,-15.397865 1.321571,-31.600344 -7.400783,-45.758503c-4.97163,-10.571048 -13.440856,-19.904353 -16.975187,-30.920531c-4.398113,-17.090859 1.034493,-36.461617 17.403221,-47.935371c18.460067,-13.352965 47.939391,-15.093372 68.260262,-3.744164c14.332461,8.333958 24.673654,22.079522 24.289473,37.079165c1.681746,11.208059 -3.558314,21.750206 -9.722667,31.38536c-4.416505,7.757945 -9.57434,15.349474 -13.583001,23.193921c-1.056782,16.084022 -0.450698,32.315571 -3.317109,48.261248c-4.774907,12.356072 -22.76971,20.756974 -37.627267,16.382825l0,0.000007l-0.000001,0zm37.278544,-28.758502c-8.37657,-3.8116 -20.413654,-1.333482 -30.150192,-2.154061c-7.953464,1.342914 -22.08592,-2.754424 -26.314144,3.391751c9.669679,3.193163 21.033578,0.799518 31.327869,1.327813c8.236981,-0.667827 17.71381,0.633303 25.136467,-2.56551l0,0.000007zm-0.627344,-7.172326c1.232749,-9.683714 -16.907385,-4.74229 -24.276583,-6.183847c-9.753621,1.666566 -25.275626,-3.567337 -31.409879,3.872983c3.634973,7.476954 19.845982,2.218497 28.358677,3.877439c9.077929,-0.271553 18.495837,0.274661 27.327777,-1.566574l0.000008,0l0,-0.000001zm0.11294,-16.966711c2.394725,-18.864125 16.057939,-34.570898 23.969548,-51.826779c6.50485,-20.660245 -6.377814,-44.263619 -29.701738,-52.935913c-23.215384,-9.712804 -54.145791,-2.375369 -67.265572,16.656663c-12.641003,15.720951 -10.228557,37.081336 2.126439,52.369831c8.815601,13.361345 15.849093,28.376689 14.703361,43.926234c18.299122,0 36.598253,0 54.897391,0c0.423545,-2.729972 0.846947,-5.460126 1.270572,-8.190037l-0.000001,0.000001zm-40.511207,-26.725352c-7.250189,-10.641842 -14.693043,-21.36569 -19.741715,-32.898838c4.539077,-4.960011 5.859522,-10.484938 7.269571,-16.312705c12.73984,-2.112458 -1.621634,12.255716 10.406584,12.579503c10.676875,3.921509 5.99309,-19.028405 14.863643,-10.756046c-6.367592,9.078855 12.507643,18.110599 13.200377,5.122875c-0.915036,-9.806345 11.408693,-7.96904 6.603926,0.927332c0.396568,4.576452 9.223141,5.888463 9.374263,9.569248c-6.354255,11.635081 -11.877464,23.647397 -19.401625,34.786004c-1.693606,-4.312564 6.661091,-15.121283 9.330747,-21.467671c5.151454,-5.485913 9.578158,-20.269992 -3.851366,-18.254768c-7.790308,10.257367 -18.269933,-6.465702 -25.89773,3.364448c-6.475205,1.630505 -16.659287,-9.46658 -18.537676,1.203477c4.87685,12.673293 15.024492,23.474157 20.333912,36.016629c-1.801626,-0.896692 -2.827518,-2.469859 -3.95291,-3.879495l0,0.000007l-0.000001,0zm-10.176431,-46.446069c-3.525579,-1.452533 1.485998,7.721952 -0.000072,0l0.000072,0zm21.072327,1.083637c-4.576571,-6.53835 -2.122078,7.933066 0,0zm20.425074,0c-4.576571,-6.53835 -2.12211,7.933066 0,0zm-95.088242,-48.312775c-8.088997,-6.930248 -17.030388,-13.433143 -24.065158,-21.072179c17.574388,12.28066 33.659943,26.11131 49.497847,39.976599c4.205663,4.878586 -7.337054,-4.555803 -9.485335,-6.137215c-5.375234,-4.202393 -10.680062,-8.468662 -15.947363,-12.767204l0.000008,0l0.000001,-0.000001zm124.910372,19.814298c13.672382,-14.381017 26.429025,-29.457481 41.169865,-43.072446c-2.468325,5.861921 -10.414059,12.876135 -15.410039,18.913379c-8.343252,8.762368 -16.142001,18.026962 -25.682719,25.883281c-1.190782,1.062516 -2.968913,-1.454131 -0.076978,-1.724214l-0.00012,0l-0.000008,0l-0.000001,0zm-29.614697,-13.643071c4.723924,-11.406202 11.576059,-22.263561 19.22058,-32.471856c-0.177668,5.663049 -8.285249,16.396416 -12.182255,23.418377c-2.204511,2.825703 -4.063957,7.33211 -7.038324,9.053479l-0.000001,0zm-60.4944,-14.628031c-3.290651,-4.051892 -13.196384,-13.486597 -11.346833,-14.773239c9.550406,8.938959 19.263912,18.165354 26.124457,28.736443c-5.842447,-3.782625 -10.046329,-9.245986 -14.777632,-13.963204l0.000008,0zm37.81931,-3.188882c-0.66598,-3.805277 1.401424,-21.970826 2.54996,-9.636044c0.004081,7.728316 0.959679,16.428506 -1.588564,23.462723c-1.091219,-4.522445 -0.82647,-9.230589 -0.961396,-13.826679z" id="svg_18" stroke="null"/>
  </g>
  <path fill="#529D94" stroke="null" stroke-width="1.5" stroke-opacity="null" d="m-99.361105,364.154019c-0.07423,-0.04723 -0.117234,-0.241402 -0.112161,-0.417548c-0.0019,-0.23008 0.00695,-0.472183 -0.038922,-0.683739c-0.026147,-0.157956 -0.070687,-0.297417 -0.089275,-0.462025c-0.02313,-0.255377 0.005441,-0.544821 0.091526,-0.716266c0.097084,-0.199524 0.25212,-0.22553 0.358991,-0.055947c0.075376,0.124529 0.129762,0.329919 0.127742,0.554049c0.008845,0.167475 -0.018714,0.324999 -0.051133,0.46897c-0.023227,0.115922 -0.050353,0.229357 -0.071435,0.346571c-0.005558,0.240333 -0.00237,0.48287 -0.017445,0.721135c-0.025112,0.184628 -0.119749,0.310158 -0.197887,0.244798l0,0l-0.000001,0.000002zm0.196053,-0.429719c-0.044054,-0.056954 -0.107358,-0.019925 -0.158564,-0.032187c-0.041828,0.020066 -0.116153,-0.041158 -0.13839,0.050681c0.050854,0.047713 0.110619,0.011947 0.164758,0.019841c0.043319,-0.009979 0.09316,0.009463 0.132196,-0.038335l0,0zm-0.003299,-0.107171c0.006483,-0.144697 -0.088918,-0.070861 -0.127674,-0.092401c-0.051296,0.024902 -0.132928,-0.053304 -0.165189,0.057871c0.019117,0.111723 0.104373,0.03315 0.149142,0.057938c0.047742,-0.004058 0.097272,0.004104 0.143721,-0.023408l0,0zm0.000594,-0.253522c0.012594,-0.281874 0.084451,-0.51657 0.126059,-0.774413c0.03421,-0.308712 -0.033542,-0.661402 -0.156206,-0.790986c-0.122093,-0.145132 -0.284761,-0.035494 -0.353759,0.248889c-0.066481,0.234908 -0.053793,0.554082 0.011183,0.782527c0.046363,0.19965 0.083353,0.424014 0.077327,0.65636c0.096238,0 0.192476,0 0.288713,0c0.002227,-0.040792 0.004454,-0.081587 0.006682,-0.122378l0.000001,0.000001zm-0.213054,-0.399339c-0.03813,-0.159014 -0.077273,-0.319253 -0.103825,-0.491585c0.023872,-0.074114 0.030816,-0.156669 0.038232,-0.24375c0.067001,-0.031565 -0.008528,0.183129 0.05473,0.187967c0.056151,0.058596 0.031519,-0.284329 0.07817,-0.16072c-0.033488,0.135659 0.06578,0.270615 0.069423,0.076548c-0.004812,-0.14653 0.06,-0.119076 0.034731,0.013857c0.002086,0.068383 0.048506,0.087987 0.049301,0.142987c-0.033418,0.173855 -0.062465,0.353347 -0.102036,0.519784c-0.008907,-0.06444 0.035032,-0.225947 0.049072,-0.320777c0.027092,-0.081972 0.050373,-0.302881 -0.020255,-0.272769c-0.04097,0.153269 -0.096084,-0.096613 -0.1362,0.050273c-0.034054,0.024364 -0.087614,-0.141453 -0.097492,0.017983c0.025648,0.189369 0.079016,0.350759 0.106939,0.538172c-0.009475,-0.013399 -0.01487,-0.036905 -0.020789,-0.057969l0,0l-0.000001,-0.000001zm-0.053519,-0.694012c-0.018542,-0.021704 0.007815,0.115384 0,0l0,0zm0.110822,0.016192c-0.024069,-0.097698 -0.01116,0.118538 0,0zm0.107418,0c-0.024069,-0.097698 -0.01116,0.118538 0,0zm-0.500083,-0.721905c-0.042541,-0.103554 -0.089565,-0.200722 -0.126562,-0.314867c0.092426,0.183502 0.177023,0.390164 0.260316,0.597343c0.022118,0.072897 -0.038587,-0.068074 -0.049885,-0.091704c-0.028269,-0.062794 -0.056168,-0.126542 -0.08387,-0.190772l0,0l0.000001,0zm0.656922,0.296072c0.071905,-0.214886 0.138994,-0.440163 0.216518,-0.643603c-0.012981,0.087591 -0.054769,0.192399 -0.081044,0.28261c-0.043878,0.13093 -0.084893,0.269365 -0.135069,0.386757c-0.006262,0.015876 -0.015614,-0.021728 -0.000405,-0.025764l-0.000001,0l0,0l0.000001,0zm-0.155748,-0.203859c0.024844,-0.170435 0.06088,-0.332669 0.101084,-0.485205c-0.000934,0.084619 -0.043573,0.245001 -0.064068,0.349925c-0.011594,0.042223 -0.021373,0.109559 -0.037016,0.13528zm-0.318149,-0.218577c-0.017306,-0.060545 -0.069402,-0.201521 -0.059675,-0.220747c0.050227,0.133569 0.101312,0.271433 0.137392,0.429389c-0.030726,-0.056521 -0.052835,-0.138157 -0.077718,-0.208643l0,0l0.000001,0.000001zm0.198897,-0.047649c-0.003502,-0.05686 0.00737,-0.328295 0.013411,-0.143985c0.000021,0.115479 0.005047,0.24548 -0.008354,0.350588c-0.005739,-0.067576 -0.004347,-0.137926 -0.005056,-0.206603l-0.000001,0z" id="svg_20"/>
 </g>
 <g>
  <title>background</title>
  <rect fill="none" id="canvas_background" height="402" width="582" y="-1" x="-1"/>
 </g>
</svg>